<?xml version="1.0" encoding="utf-8"?>
<svg viewBox="0 0 1048 1048" width="1048px" height="1048px" xmlns="http://www.w3.org/2000/svg">
  <g transform="matrix(0.8086839914321899, 0, 0, 0.8086839914321899, -284.6844219667378, -284.68439144915914)" style="">
    <ellipse style="fill: #1d366f;" cx="1000" cy="1000" rx="647.966" ry="647.966"/>
    <g transform="matrix(0.55525, 0, 0, 0.55525, 444.750007, 444.749946)" style="">
      <svg viewBox="0 0 280 280" data-background-color="#1d366f" preserveAspectRatio="xMidYMid meet" height="2000" width="2000" xmlns="http://www.w3.org/2000/svg">
        <g id="tight-bounds" transform="matrix(1,0,0,1,0,-0.00003189259922464771)">
          <svg viewBox="0 0 280 280" height="280" width="280">
            <g>
              <svg viewBox="0 0 280 280" height="280" width="280">
                <g>
                  <svg viewBox="0 0 280 280" height="280" width="280">
                    <g id="textblocktransform">
                      <svg viewBox="0 0 280 280" height="280" width="280" id="textblock">
                        <g>
                          <svg viewBox="0 0 280 280" height="280" width="280">
                            <g transform="matrix(1,0,0,1,74.0048374386576,74.00336708925556)">
                              <svg viewBox="0 0 131.9903251226848 131.99326582148888" height="131.99326582148888" width="131.9903251226848">
                                <g id="icon-0">
                                  <svg xmlns="http://www.w3.org/2000/svg" version="1.1" x="0" y="0" viewBox="5 5.096 89.768 89.77" enable-background="new 0 0 100 100" height="131.99326582148888" width="131.9903251226848" class="icon-xg-0" data-fill-palette-color="accent" id="xg-0">
                                    <path d="M49.884 5.096C25.096 5.096 5 25.193 5 49.98 5 74.77 25.096 94.866 49.884 94.866c24.789 0 44.884-20.097 44.884-44.886C94.768 25.193 74.673 5.096 49.884 5.096zM40.931 24.212c0.06-0.615 0.272-1.264 0.603-1.865 0.351-0.604 0.876-1.106 1.457-1.473 0.291-0.16 0.604-0.314 0.899-0.425l0.442-0.151 0.466-0.115c0.631-0.134 1.319-0.174 2.003-0.05 0.684 0.12 1.344 0.407 1.899 0.799 1.119 0.794 1.826 1.902 2.333 3.014 0.266 0.595 0.473 1.204 0.64 1.819 0.475-0.973 1.025-1.906 1.664-2.792 0.709-0.96 1.532-1.864 2.555-2.592 0.243-0.193 0.537-0.338 0.809-0.502 0.274-0.145 0.548-0.26 0.823-0.389 0.279-0.115 0.572-0.21 0.859-0.314 0.298-0.08 0.597-0.158 0.9-0.221 1.215-0.223 2.591-0.151 3.776 0.48 1.183 0.629 2.04 1.73 2.447 2.851 0.431 1.121 0.55 2.271 0.53 3.304-0.004 0.263 0.024 0.524-0.008 0.786-0.026 0.26-0.055 0.52-0.081 0.776-0.032 0.519-0.165 1.014-0.278 1.506-0.481 1.968-1.431 3.629-2.379 4.99-0.953 1.368-1.905 2.49-2.704 3.488-0.804 0.991-1.444 1.852-1.93 2.582-0.47 0.735-0.758 1.319-0.976 1.756-0.265 0.457-0.602 0.742-1.005 0.896-0.404 0.15-0.863 0.168-1.256 0.045-0.393-0.124-0.717-0.394-0.851-0.826-0.127-0.427-0.093-1.048 0.33-1.71 0.283-0.497 0.805-1.11 1.416-1.88 0.625-0.757 1.391-1.631 2.268-2.58 0.868-0.953 1.837-1.994 2.747-3.186 0.91-1.191 1.739-2.557 2.177-4.146 0.103-0.397 0.229-0.798 0.261-1.224 0.028-0.211 0.057-0.423 0.085-0.637 0.036-0.213 0.011-0.435 0.02-0.655 0.042-0.896-0.047-1.757-0.326-2.539-0.268-0.788-0.777-1.415-1.45-1.801-0.681-0.38-1.56-0.465-2.459-0.316-0.226 0.045-0.453 0.103-0.681 0.159-0.225 0.082-0.453 0.15-0.678 0.24-0.221 0.104-0.454 0.198-0.668 0.306-0.197 0.123-0.407 0.214-0.597 0.366-0.786 0.545-1.497 1.296-2.119 2.132-1.003 1.371-1.746 3.023-2.37 4.605s-0.57 1.841-1.023 2.335c-0.675 0.737-1.252 0.28-1.293-1.016-0.009-0.29-0.01-1.014-0.017-1.268-0.011-0.376-0.023-0.774-0.121-1.356-0.155-0.929-0.421-1.84-0.796-2.674-0.413-0.911-0.987-1.726-1.692-2.207-0.7-0.486-1.507-0.604-2.357-0.408l-0.317 0.082-0.317 0.113c-0.202 0.082-0.369 0.175-0.545 0.267-0.313 0.214-0.569 0.463-0.745 0.774-0.34 0.63-0.416 1.493-0.282 2.363 0.125 0.87 0.39 1.744 0.74 2.561 0.331 0.804 0.813 1.606 1.225 2.383 0.413 0.781 0.895 1.502 1.317 2.214 0.443 0.705 0.904 1.366 1.328 2.006 0.881 1.269 1.707 2.408 2.471 3.403 0.75 0.997 1.436 1.853 1.999 2.552 0.565 0.703 1.049 1.221 1.355 1.607 2.199 2.823-0.608 4.669-2.602 1.875-0.271-0.402-0.618-1.024-1.106-1.778-0.499-0.757-1.104-1.674-1.801-2.731-0.707-1.054-1.493-2.261-2.34-3.603-0.411-0.681-0.856-1.378-1.291-2.126-0.416-0.761-0.888-1.519-1.298-2.356-0.412-0.836-0.88-1.65-1.262-2.633-0.38-0.957-0.678-1.988-0.814-3.113C40.869 25.423 40.854 24.83 40.931 24.212zM82.587 54.279c-0.038 0.233-0.077 0.467-0.116 0.704-0.067 0.477-0.184 0.938-0.297 1.405-0.964 3.73-2.689 7.352-4.783 11.104-1.098 1.853-2.345 3.725-3.93 5.438-1.576 1.705-3.533 3.256-5.821 4.213-0.561 0.263-1.149 0.446-1.733 0.654-0.59 0.169-1.182 0.35-1.78 0.478-1.192 0.281-2.394 0.48-3.579 0.674l-0.447 0.074-0.495 0.05c-0.33 0.028-0.664 0.074-0.992 0.083-0.644-0.019-1.305 0.011-1.933-0.073l-0.956-0.092-0.94-0.146c-0.632-0.087-1.248-0.22-1.868-0.349-4.945-1.054-9.75-2.895-14.59-4.377l-0.898-0.249-0.876-0.199-0.893-0.101c-0.298-0.03-0.59-0.085-0.899-0.072-0.614 0.004-1.222-0.038-1.846 0.029l-0.932 0.062c-0.312 0.031-0.627 0.076-0.939 0.113-1.254 0.145-2.512 0.382-3.813 0.59-0.664 0.103-1.281 0.216-2.125 0.217-0.125-0.01-0.249-0.022-0.373-0.038-0.116-0.023-0.223-0.062-0.334-0.093-0.231-0.061-0.418-0.157-0.604-0.256-0.198-0.092-0.354-0.208-0.518-0.32-0.169-0.11-0.31-0.234-0.451-0.357-0.564-0.496-1.033-1.037-1.439-1.599-0.412-0.562-0.78-1.14-1.111-1.734-0.667-1.185-1.216-2.418-1.659-3.694-0.426-1.274-0.8-2.554-1.016-3.898-0.214-1.338-0.349-2.717-0.073-4.178 0.046-0.195 0.068-0.385 0.136-0.582l0.252-0.669c0.194-0.421 0.553-0.743 0.968-0.957 0.239-0.124 0.384-0.179 0.558-0.242 0.167-0.058 0.333-0.112 0.491-0.152 0.643-0.173 1.253-0.266 1.858-0.347 1.21-0.156 2.394-0.231 3.557-0.327 0.579-0.049 1.154-0.099 1.696-0.175 0.267-0.037 0.531-0.086 0.727-0.143 0.056-0.013 0.076-0.028 0.117-0.04l0.143-0.069c0.092-0.038 0.208-0.112 0.316-0.174 0.906-0.561 1.922-1.306 2.983-1.906 2.244-1.301 4.787-2.093 7.303-2.312 1.253-0.117 2.533-0.117 3.806 0.098 1.27 0.209 2.535 0.649 3.629 1.344 2.232 1.366 3.521 3.541 4.993 4.695 0.738 0.574 1.502 0.88 2.386 0.9 0.434 0.03 0.893-0.033 1.35-0.101 0.544-0.094 1.084-0.177 1.622-0.239 2.154-0.25 4.256-0.264 6.276-0.082 2.021 0.19 3.96 0.546 5.801 1.241 0.668 0.26 1.336 0.572 1.995 1.027 0.329 0.227 0.658 0.496 0.962 0.858 0.3 0.354 0.594 0.823 0.7 1.41 0.119 0.641 0.128 1.292 0.028 1.917-0.112 0.617-0.312 1.195-0.566 1.726-0.255 0.532-0.567 1.011-0.907 1.459-0.168 0.226-0.349 0.439-0.535 0.647-0.094 0.107-0.188 0.201-0.293 0.311-0.149 0.147-0.302 0.294-0.475 0.434l-0.1 0.066-0.025 0.017c-0.009-0.006 0.003 0.026-0.023-0.012l-0.014 0.008-0.052 0.029c-0.068 0.042-0.144 0.072-0.214 0.108-0.143 0.069-0.311 0.089-0.463 0.134l-0.345 0.071-0.275 0.049c-0.357 0.058-0.708 0.115-1.053 0.171-0.677 0.096-1.33 0.189-1.957 0.278-1.25 0.159-2.396 0.307-3.431 0.438-2.067 0.247-3.681 0.466-4.82 0.569-4.096 0.384-6.208-0.472-6.15-1.297 0.056-0.822 1.985-1.621 5.918-1.915 1.102-0.064 2.72-0.11 4.769-0.262 1.025-0.079 2.16-0.174 3.393-0.295 0.612-0.066 1.25-0.136 1.912-0.208 0.323-0.042 0.652-0.084 0.988-0.128 0.139-0.021 0.278-0.043 0.418-0.066 0.03-0.005 0.063-0.003 0.086-0.023l0.061-0.051c0.064-0.066 0.146-0.142 0.213-0.217 0.143-0.15 0.281-0.306 0.408-0.468 0.255-0.32 0.486-0.656 0.66-1 0.174-0.343 0.298-0.688 0.372-1.026 0.061-0.336 0.058-0.664-0.005-0.976 0.008-0.088-0.212-0.448-0.629-0.736-0.401-0.297-0.909-0.565-1.449-0.791-1.508-0.606-3.283-0.979-5.132-1.177-1.854-0.197-3.811-0.21-5.797-0.008-0.496 0.052-0.993 0.122-1.492 0.202-0.589 0.083-1.197 0.158-1.841 0.112-1.279-0.027-2.646-0.591-3.625-1.404-1.001-0.807-1.711-1.726-2.447-2.537-0.725-0.813-1.461-1.543-2.317-2.079-1.69-1.102-3.884-1.385-6.136-1.184-2.249 0.184-4.457 0.852-6.488 2.011-0.986 0.552-1.866 1.2-2.964 1.878-0.148 0.084-0.281 0.168-0.462 0.25l-0.258 0.119c-0.101 0.036-0.219 0.083-0.305 0.104-0.376 0.107-0.695 0.156-1.01 0.202-0.626 0.083-1.223 0.134-1.816 0.18-1.18 0.093-2.344 0.164-3.464 0.304-0.556 0.072-1.11 0.157-1.598 0.289-0.125 0.03-0.236 0.069-0.347 0.104-0.102 0.035-0.227 0.089-0.242 0.098-0.095 0.047-0.193 0.119-0.222 0.229l-0.033 0.093-0.071 0.177c-0.047 0.119-0.061 0.268-0.096 0.401-0.207 1.052-0.12 2.28 0.078 3.472 0.188 1.201 0.539 2.411 0.929 3.585 0.403 1.167 0.912 2.311 1.516 3.382 0.598 1.064 1.311 2.102 2.131 2.822 0.398 0.359 0.849 0.593 1.116 0.599 0.439-0.002 1.115-0.094 1.727-0.198 1.262-0.2 2.556-0.447 3.876-0.603 0.332-0.04 0.659-0.086 0.991-0.118l1.006-0.07c0.665-0.07 1.354-0.032 2.032-0.034 0.338-0.013 0.686 0.045 1.03 0.081l1.034 0.118 1.012 0.227 0.96 0.264c2.51 0.748 4.907 1.587 7.311 2.341 2.396 0.754 4.781 1.449 7.148 1.942 0.591 0.118 1.181 0.243 1.768 0.319l0.877 0.131 0.869 0.077c0.584 0.075 1.14 0.038 1.706 0.054 0.276-0.01 0.54-0.052 0.81-0.074l0.403-0.04 0.444-0.076c1.187-0.203 2.338-0.405 3.441-0.675 0.558-0.123 1.088-0.292 1.622-0.448 0.516-0.191 1.041-0.356 1.525-0.593 1.988-0.854 3.658-2.202 5.069-3.756 1.412-1.557 2.562-3.316 3.578-5.082 1.95-3.596 3.583-7.205 4.368-10.548 0.094-0.417 0.19-0.83 0.237-1.235 0.03-0.203 0.06-0.404 0.089-0.605 0.013-0.197 0.026-0.392 0.039-0.587 0.046-0.395 0.001-0.758 0.004-1.127-0.05-0.349-0.072-0.705-0.168-1.012-0.309-1.266-1.125-2.035-2.116-2.251-0.635-0.143-1.365-0.081-2.009 0.183-0.321 0.127-0.633 0.291-0.89 0.502-0.029-0.003-0.231 0.229-0.375 0.382-0.154 0.163-0.308 0.331-0.458 0.544-0.293 0.392-0.587 0.785-0.883 1.127l-1.352-1.345c-0.117-0.113-0.228-0.237-0.367-0.326l-0.189-0.137-0.069-0.04c-0.09-0.062-0.186-0.1-0.28-0.134-0.622-0.275-1.104-0.163-1.522 0.03-0.419 0.22-0.79 0.558-1.088 0.932-1.264 1.62-2.388 3.047-3.262 2.899-0.417-0.056-0.707-0.46-0.726-1.297 0.026-0.818 0.22-2.135 1.546-3.704 0.252-0.275 0.523-0.58 0.915-0.867 0.184-0.148 0.378-0.3 0.622-0.428 0.238-0.13 0.465-0.281 0.76-0.375 1.09-0.461 2.685-0.525 3.987 0.162 0.166 0.083 0.339 0.16 0.492 0.27 0.074 0.048 0.148 0.098 0.225 0.149 0 0.002-0.01 0-0.002 0.009 0.024 0.025 0.053 0.062 0.087 0.103 0.032-0.029 0.054-0.048 0.131-0.1 0.089-0.062 0.182-0.125 0.273-0.19 0.12-0.083 0.241-0.166 0.371-0.233 0.252-0.152 0.523-0.28 0.805-0.398 1.125-0.449 2.491-0.662 3.896-0.292 0.937 0.227 1.859 0.767 2.555 1.521 0.711 0.759 1.167 1.734 1.385 2.701 0.13 0.489 0.158 0.97 0.21 1.461-0.006 0.476 0.026 0.971-0.034 1.44C82.629 53.799 82.608 54.037 82.587 54.279z" fill="#08c076" data-fill-palette-color="accent"/>
                                  </svg>
                                </g>
                              </svg>
                            </g>
                            <g id="text-0">
                              <path d="M25.021 108.243c-0.294 0.919-0.737 1.644-1.329 2.176-0.585 0.533-1.197 0.883-1.835 1.05-0.639 0.167-1.2 0.194-1.685 0.081v0c-0.408-0.131-0.789-0.378-1.144-0.741-0.357-0.357-0.628-0.736-0.813-1.139-0.187-0.395-0.255-0.674-0.203-0.835v0c0.033-0.104 0.111-0.136 0.234-0.097v0c1.153 0.255 2.273 0.279 3.361 0.071 1.096-0.213 1.856-0.983 2.281-2.31v0c0.34-1.062 0.285-2.014-0.165-2.858-0.451-0.844-1.258-1.452-2.424-1.825v0c-0.693-0.222-1.376-0.295-2.049-0.218-0.681 0.075-1.485 0.302-2.414 0.683v0l-4.515 1.861c-0.531 0.187-1.056 0.3-1.575 0.341-0.518 0.034-1.103-0.054-1.757-0.263v0c-1.062-0.34-1.983-0.906-2.764-1.699-0.783-0.786-1.315-1.742-1.597-2.867-0.282-1.125-0.223-2.312 0.177-3.562v0c0.326-1.016 0.803-1.784 1.434-2.303 0.624-0.521 1.324-0.657 2.1-0.408v0c0.595 0.191 1.203 0.657 1.822 1.398v0c0.246 0.279 0.333 0.531 0.261 0.757v0c-0.052 0.162-0.164 0.244-0.336 0.246-0.165 0.004-0.462-0.041-0.888-0.135v0c-1.65-0.464-2.746 0.151-3.29 1.848v0c-0.328 1.023-0.321 1.903 0.021 2.64 0.335 0.736 0.953 1.247 1.853 1.536v0c0.9 0.288 1.926 0.203 3.079-0.256v0l4.341-1.853c1.902-0.79 3.668-0.923 5.299-0.4v0c1.185 0.38 2.185 1.067 3 2.064 0.818 0.99 1.365 2.122 1.642 3.395 0.284 1.276 0.243 2.483-0.122 3.622z" fill="#ffffff" data-fill-palette-color="primary"/>
                              <path d="M32.12 89.272c-0.064 0.112-0.161 0.131-0.291 0.058v0c-0.39-0.222-0.65-0.652-0.779-1.289v0c-0.119-0.49-0.249-0.881-0.389-1.172-0.149-0.288-0.386-0.607-0.71-0.956-0.334-0.347-0.866-0.814-1.596-1.402v0l-11.556-9.331-0.066 0.115c-0.508 0.892-0.797 1.619-0.867 2.182-0.079 0.565-0.088 1.026-0.025 1.382 0.057 0.353 0.07 0.556 0.04 0.609v0c-0.064 0.112-0.182 0.12-0.353 0.022v0c-0.165-0.094-0.289-0.2-0.371-0.317v0c-0.532-0.577-0.779-1.386-0.74-2.428 0.035-1.036 0.451-2.254 1.248-3.654v0c0.37-0.65 0.875-1.433 1.516-2.351v0c0.942-1.434 1.499-2.302 1.671-2.603v0c0.616-1.081 0.977-1.927 1.083-2.54 0.104-0.621 0.178-0.971 0.222-1.047v0c0.04-0.071 0.084-0.113 0.13-0.125 0.046-0.013 0.105 0.001 0.176 0.041v0c0.224 0.128 0.414 0.427 0.567 0.899 0.148 0.468 0.173 1.069 0.076 1.803-0.098 0.734-0.396 1.539-0.894 2.412v0c-0.192 0.337-0.384 0.653-0.577 0.951-0.193 0.297-0.367 0.561-0.522 0.793v0c-0.565 0.813-0.948 1.396-1.15 1.751v0l6.111 4.925 2.993-5.253c0.084-0.148 0.191-0.184 0.322-0.11v0c0.13 0.074 0.283 0.314 0.458 0.719 0.172 0.411 0.288 0.86 0.347 1.347 0.053 0.484-0.012 0.885-0.193 1.204v0c-0.054 0.094-0.222 0.308-0.505 0.64v0c-0.551 0.57-0.992 1.144-1.322 1.722v0l-0.525 0.922 4.934 4.067c0.299 0.217 0.563 0.473 0.794 0.769 0.228 0.286 0.379 0.537 0.453 0.75v0l0.026 0.015c0.334-0.326 0.692-0.748 1.073-1.265 0.385-0.524 0.715-1.028 0.991-1.513v0c0.946-1.659 1.376-3.362 1.291-5.108v0c0.01-0.073 0.016-0.151 0.018-0.236 0.002-0.085 0.018-0.154 0.048-0.208v0c0.074-0.13 0.203-0.143 0.385-0.038v0c0.396 0.225 0.672 0.715 0.829 1.47 0.163 0.758 0.174 1.617 0.034 2.577-0.137 0.954-0.439 1.842-0.908 2.663v0c-0.316 0.555-0.899 1.358-1.747 2.407v0c-0.618 0.782-1.023 1.342-1.214 1.678v0c-0.222 0.39-0.354 0.807-0.397 1.253-0.042 0.445-0.089 0.712-0.139 0.8z" fill="#ffffff" data-fill-palette-color="primary"/>
                              <path d="M44.361 69.456c-0.045 0.051-0.102 0.068-0.171 0.052-0.069-0.025-0.126-0.058-0.171-0.099v0c-0.207-0.186-0.375-0.493-0.504-0.919-0.119-0.427-0.159-0.86-0.12-1.3 0.034-0.445 0.158-0.786 0.371-1.023v0l0.498-0.554c-0.083-0.477-0.244-0.959-0.482-1.447-0.243-0.492-0.663-1.108-1.261-1.846v0l-7.208-9.108c-0.566-0.682-1.001-1.434-1.304-2.255-0.299-0.817-0.471-1.794-0.518-2.932v0c-0.108-2.025 0.419-3.685 1.582-4.98v0c0.286-0.319 0.602-0.615 0.949-0.888 0.351-0.279 0.675-0.472 0.972-0.579v0c0.284-0.092 0.466-0.102 0.547-0.029v0c0.142 0.127 0.135 0.455-0.019 0.983-0.15 0.523-0.325 0.896-0.525 1.118v0c-0.059 0.066-0.259 0.206-0.599 0.422-0.34 0.215-0.644 0.472-0.911 0.771v0c-0.504 0.561-0.787 1.262-0.848 2.103v0c-0.033 0.546 0.109 1.14 0.427 1.782 0.318 0.642 0.793 1.38 1.425 2.212v0l8.408 10.748c0.275 0.366 0.505 0.76 0.691 1.183 0.177 0.424 0.269 0.809 0.278 1.155v0l0.023 0.02c0.338-0.244 0.892-0.738 1.661-1.482 0.773-0.749 1.36-1.346 1.759-1.791v0c1.245-1.385 2.04-2.946 2.385-4.683v0c0.041-0.228 0.088-0.373 0.143-0.433v0c0.1-0.111 0.236-0.09 0.408 0.065v0c0.303 0.273 0.454 0.801 0.453 1.585-0.001 0.794-0.196 1.688-0.586 2.681-0.385 0.988-0.95 1.897-1.696 2.726v0c-0.359 0.399-1.088 1.083-2.186 2.052v0c-0.161 0.148-0.524 0.471-1.089 0.967-0.57 0.502-1.055 0.976-1.454 1.421v0c-0.413 0.46-0.697 0.831-0.85 1.114-0.153 0.283-0.258 0.536-0.313 0.76-0.055 0.224-0.11 0.367-0.165 0.428z" fill="#ffffff" data-fill-palette-color="primary"/>
                              <path d="M63.07 50.285c-0.082 0.061-0.18 0.014-0.293-0.139v0c-0.283-0.383-0.371-0.879-0.265-1.49v0c0.137-0.684 0.207-1.155 0.212-1.412 0.01-0.261-0.059-0.582-0.205-0.964-0.156-0.383-0.463-1.032-0.919-1.945v0l-6.762-13.195-0.131 0.097c-0.825 0.61-1.384 1.158-1.675 1.644-0.301 0.485-0.489 0.899-0.565 1.242-0.08 0.338-0.147 0.527-0.202 0.568v0c-0.12 0.089-0.239 0.054-0.356-0.105v0c-0.036-0.049-0.104-0.198-0.203-0.446v0c-0.259-0.739-0.165-1.573 0.28-2.502 0.446-0.929 1.316-1.873 2.611-2.83v0c0.618-0.457 1.405-0.975 2.362-1.556v0c0.24-0.144 0.632-0.391 1.176-0.742 0.538-0.347 0.998-0.662 1.381-0.945v0c0.672-0.497 1.174-0.927 1.505-1.291 0.331-0.363 0.586-0.682 0.763-0.957 0.179-0.284 0.304-0.453 0.375-0.505v0c0.066-0.048 0.122-0.069 0.17-0.062 0.048 0.007 0.096 0.043 0.144 0.109v0c0.154 0.208 0.205 0.558 0.156 1.051-0.054 0.488-0.268 1.044-0.644 1.668-0.381 0.628-0.976 1.241-1.785 1.839v0c-0.312 0.23-0.888 0.606-1.728 1.126v0c-0.214 0.133-0.477 0.298-0.789 0.494-0.307 0.202-0.625 0.424-0.953 0.666v0l3.851 7.474 4.862-3.594c0.153-0.113 0.268-0.118 0.345-0.014v0c0.089 0.12 0.128 0.408 0.118 0.863-0.006 0.461-0.08 0.921-0.222 1.381-0.132 0.461-0.346 0.801-0.641 1.019v0c-0.087 0.065-0.346 0.201-0.775 0.409v0c-0.686 0.296-1.305 0.648-1.857 1.056v0l-0.877 0.648 2.975 5.877c0.241 0.464 0.322 0.967 0.24 1.509v0l0.018 0.024c0.578-0.19 0.979-0.368 1.203-0.534v0c0.224-0.166 0.414-0.378 0.569-0.636 0.151-0.264 0.254-0.416 0.309-0.457v0c0.12-0.089 0.219-0.081 0.296 0.022v0c0.105 0.142 0.126 0.422 0.063 0.841v0c-0.189 1.23-0.489 1.997-0.899 2.3v0c-0.142 0.105-0.469 0.241-0.979 0.407v0c-0.653 0.237-1.075 0.427-1.266 0.568v0c-0.273 0.202-0.495 0.48-0.665 0.834-0.164 0.35-0.274 0.545-0.328 0.585z" fill="#ffffff" data-fill-palette-color="primary"/>
                              <path d="M82.048 37.23c-0.062 0.028-0.121 0.021-0.177-0.02-0.053-0.051-0.092-0.104-0.117-0.16v0c-0.115-0.254-0.146-0.602-0.092-1.044 0.063-0.439 0.2-0.852 0.412-1.239 0.21-0.393 0.46-0.656 0.752-0.787v0l0.678-0.308c0.115-0.47 0.162-0.976 0.14-1.518-0.025-0.548-0.162-1.281-0.413-2.197v0l-2.939-11.237c-0.244-0.852-0.34-1.715-0.289-2.589 0.055-0.868 0.289-1.832 0.705-2.893v0c0.715-1.898 1.865-3.206 3.45-3.924v0c0.39-0.177 0.799-0.321 1.225-0.432 0.433-0.114 0.808-0.161 1.124-0.139v0c0.297 0.03 0.468 0.094 0.512 0.193v0c0.079 0.173-0.059 0.471-0.413 0.892-0.348 0.419-0.658 0.69-0.93 0.813v0c-0.08 0.036-0.32 0.085-0.717 0.146-0.398 0.061-0.779 0.174-1.145 0.339v0c-0.687 0.311-1.228 0.839-1.621 1.585v0c-0.25 0.486-0.358 1.087-0.325 1.803 0.033 0.716 0.172 1.582 0.415 2.599v0l3.38 13.22c0.105 0.445 0.157 0.899 0.157 1.362-0.009 0.459-0.078 0.849-0.209 1.169v0l0.012 0.028c0.408-0.088 1.113-0.318 2.117-0.69 1.009-0.375 1.786-0.686 2.331-0.932v0c1.696-0.768 3.052-1.878 4.065-3.33v0c0.129-0.193 0.231-0.306 0.305-0.34v0c0.136-0.062 0.252 0.013 0.348 0.224v0c0.168 0.371 0.094 0.916-0.223 1.634-0.32 0.727-0.858 1.467-1.614 2.219-0.75 0.75-1.632 1.355-2.647 1.814v0c-0.489 0.221-1.431 0.555-2.827 1.001v0c-0.207 0.071-0.669 0.221-1.386 0.448-0.724 0.231-1.358 0.469-1.903 0.716v0c-0.563 0.255-0.972 0.481-1.226 0.679-0.254 0.197-0.451 0.387-0.592 0.57-0.141 0.183-0.248 0.292-0.323 0.325z" fill="#ffffff" data-fill-palette-color="primary"/>
                              <path d="M106.925 27.186c-0.126 0.029-0.205-0.03-0.239-0.176v0c-0.099-0.437 0.042-0.919 0.425-1.445v0c0.281-0.419 0.482-0.778 0.603-1.077 0.112-0.304 0.188-0.694 0.226-1.17 0.03-0.481 0.016-1.188-0.043-2.123v0l-0.915-14.825-0.13 0.029c-1.001 0.227-1.732 0.504-2.194 0.832-0.47 0.323-0.816 0.628-1.037 0.915-0.222 0.28-0.363 0.427-0.423 0.441v0c-0.126 0.029-0.211-0.053-0.254-0.246v0c-0.042-0.186-0.048-0.348-0.017-0.487v0c0.067-0.782 0.497-1.51 1.292-2.185 0.788-0.674 1.968-1.188 3.539-1.545v0c0.729-0.165 1.649-0.322 2.758-0.469v0c1.694-0.273 2.711-0.447 3.049-0.524v0c1.213-0.275 2.081-0.58 2.605-0.915 0.529-0.343 0.836-0.524 0.922-0.543v0c0.08-0.018 0.14-0.014 0.18 0.011 0.041 0.026 0.07 0.078 0.088 0.158v0c0.057 0.252-0.036 0.594-0.28 1.025-0.245 0.425-0.672 0.849-1.279 1.273-0.608 0.424-1.402 0.747-2.383 0.969v0c-0.378 0.086-0.741 0.158-1.091 0.216-0.349 0.058-0.662 0.108-0.938 0.15v0c-0.981 0.132-1.67 0.243-2.068 0.333v0l0.491 7.834 5.896-1.337c0.166-0.038 0.265 0.017 0.298 0.162v0c0.033 0.146-0.041 0.42-0.221 0.824-0.187 0.405-0.44 0.793-0.76 1.165-0.321 0.366-0.661 0.589-1.019 0.67v0c-0.106 0.024-0.377 0.044-0.812 0.059v0c-0.793-0.022-1.514 0.04-2.164 0.188v0l-1.034 0.234 0.33 6.386c0.041 0.367 0.031 0.735-0.032 1.105-0.057 0.361-0.14 0.642-0.248 0.84v0l0.006 0.03c0.466 0.027 1.019 0.006 1.659-0.062 0.646-0.07 1.241-0.166 1.784-0.29v0c1.863-0.422 3.409-1.254 4.641-2.495v0c0.06-0.042 0.122-0.09 0.186-0.147 0.064-0.056 0.126-0.091 0.185-0.105v0c0.146-0.033 0.242 0.053 0.289 0.259v0c0.101 0.444-0.074 0.979-0.525 1.604-0.449 0.632-1.075 1.22-1.879 1.764-0.797 0.543-1.656 0.919-2.577 1.128v0c-0.623 0.141-1.608 0.253-2.956 0.335v0c-0.994 0.072-1.68 0.151-2.058 0.237v0c-0.437 0.099-0.835 0.283-1.192 0.553-0.357 0.269-0.585 0.415-0.684 0.437z" fill="#ffffff" data-fill-palette-color="primary"/>
                              <path d="M135.419 23.079c-0.965 0.022-1.795-0.159-2.49-0.545-0.695-0.378-1.226-0.842-1.593-1.391-0.366-0.549-0.575-1.071-0.627-1.566v0c-0.01-0.428 0.099-0.869 0.327-1.323 0.221-0.454 0.491-0.834 0.81-1.14 0.313-0.306 0.554-0.461 0.724-0.466v0c0.109-0.002 0.165 0.061 0.167 0.19v0c0.136 1.173 0.48 2.239 1.032 3.199 0.559 0.966 1.535 1.433 2.928 1.402v0c1.114-0.025 1.997-0.389 2.647-1.091 0.65-0.702 0.961-1.664 0.933-2.887v0c-0.017-0.727-0.171-1.397-0.464-2.008-0.293-0.619-0.771-1.305-1.434-2.058v0l-3.235-3.659c-0.35-0.441-0.629-0.9-0.837-1.378-0.201-0.478-0.31-1.06-0.325-1.746v0c-0.025-1.114 0.209-2.17 0.702-3.167 0.487-0.997 1.216-1.812 2.188-2.447 0.971-0.634 2.113-0.966 3.424-0.996v0c1.067-0.024 1.948 0.176 2.645 0.602 0.696 0.419 1.054 1.036 1.072 1.852v0c0.014 0.625-0.227 1.351-0.725 2.179v0c-0.183 0.324-0.393 0.488-0.631 0.493v0c-0.17 0.004-0.284-0.075-0.342-0.236-0.058-0.155-0.112-0.45-0.163-0.884v0c-0.1-1.711-1.041-2.546-2.821-2.505v0c-1.074 0.025-1.903 0.319-2.489 0.883-0.586 0.557-0.867 1.308-0.845 2.252v0c0.022 0.945 0.438 1.887 1.247 2.827v0l3.17 3.497c1.368 1.539 2.071 3.165 2.111 4.877v0c0.028 1.243-0.295 2.413-0.971 3.51-0.668 1.096-1.559 1.983-2.672 2.662-1.113 0.685-2.267 1.041-3.463 1.068z" fill="#ffffff" data-fill-palette-color="primary"/>
                              <path d="M158.572 24.435c-0.951-0.164-1.731-0.501-2.339-1.013-0.61-0.505-1.042-1.062-1.296-1.671-0.254-0.609-0.359-1.162-0.315-1.657v0c0.073-0.422 0.264-0.834 0.575-1.236 0.304-0.403 0.642-0.724 1.014-0.964 0.366-0.241 0.632-0.346 0.799-0.317v0c0.107 0.018 0.15 0.091 0.128 0.218v0c-0.092 1.177 0.041 2.29 0.399 3.338 0.363 1.056 1.232 1.701 2.604 1.937v0c1.099 0.189 2.034 0.002 2.807-0.562 0.773-0.564 1.263-1.448 1.471-2.654v0c0.123-0.717 0.1-1.403-0.07-2.06-0.169-0.663-0.506-1.428-1.013-2.295v0l-2.472-4.211c-0.259-0.5-0.445-1.004-0.557-1.513-0.106-0.508-0.101-1.1 0.016-1.777v0c0.189-1.099 0.621-2.09 1.297-2.973 0.669-0.885 1.542-1.545 2.617-1.981 1.075-0.436 2.259-0.543 3.551-0.321v0c1.052 0.181 1.878 0.547 2.48 1.099 0.603 0.545 0.835 1.219 0.697 2.023v0c-0.106 0.616-0.483 1.283-1.13 1.999v0c-0.242 0.283-0.48 0.404-0.714 0.363v0c-0.167-0.029-0.264-0.128-0.29-0.298-0.027-0.163-0.024-0.463 0.01-0.898v0c0.23-1.698-0.533-2.698-2.288-3v0c-1.058-0.182-1.929-0.052-2.612 0.389-0.682 0.435-1.102 1.117-1.262 2.048v0c-0.16 0.931 0.067 1.936 0.682 3.014v0l2.439 4.04c1.047 1.773 1.425 3.504 1.135 5.192v0c-0.211 1.226-0.753 2.312-1.625 3.258-0.866 0.948-1.911 1.647-3.134 2.099-1.224 0.459-2.425 0.586-3.604 0.384z" fill="#ffffff" data-fill-palette-color="primary"/>
                              <path d="M198.685 38.299c-0.835-0.484-1.449-1.072-1.841-1.763-0.396-0.685-0.607-1.358-0.633-2.017-0.026-0.659 0.068-1.214 0.281-1.664v0c0.215-0.37 0.538-0.69 0.968-0.959 0.425-0.272 0.854-0.456 1.286-0.55 0.426-0.098 0.713-0.105 0.86-0.02v0c0.094 0.055 0.109 0.138 0.044 0.249v0c-0.496 1.072-0.758 2.161-0.787 3.268-0.026 1.116 0.563 2.024 1.768 2.722v0c0.964 0.559 1.907 0.709 2.827 0.45 0.921-0.26 1.688-0.919 2.302-1.978v0c0.365-0.629 0.582-1.281 0.651-1.956 0.073-0.681 0.022-1.515-0.151-2.503v0l-0.853-4.808c-0.069-0.559-0.068-1.096 0.003-1.613 0.077-0.513 0.288-1.066 0.633-1.66v0c0.559-0.964 1.309-1.743 2.251-2.336 0.935-0.597 1.983-0.913 3.142-0.948 1.159-0.035 2.307 0.277 3.441 0.935v0c0.923 0.535 1.571 1.166 1.943 1.893 0.376 0.721 0.359 1.434-0.05 2.139v0c-0.314 0.541-0.899 1.035-1.755 1.481v0c-0.325 0.181-0.59 0.212-0.796 0.093v0c-0.147-0.085-0.203-0.212-0.168-0.381 0.031-0.163 0.139-0.442 0.322-0.839v0c0.806-1.512 0.439-2.715-1.102-3.608v0c-0.929-0.539-1.79-0.72-2.584-0.544-0.79 0.17-1.422 0.664-1.896 1.481v0c-0.474 0.817-0.61 1.838-0.409 3.063v0l0.883 4.637c0.365 2.026 0.118 3.781-0.742 5.262v0c-0.624 1.076-1.51 1.906-2.657 2.489-1.142 0.587-2.364 0.88-3.668 0.879-1.307 0.004-2.478-0.294-3.513-0.894z" fill="#ffffff" data-fill-palette-color="primary"/>
                              <path d="M215.701 49.287c-0.096-0.086-0.094-0.185 0.006-0.296v0c0.3-0.333 0.776-0.495 1.426-0.486v0c0.505-0.012 0.914-0.055 1.227-0.129 0.313-0.084 0.675-0.247 1.087-0.489 0.41-0.252 0.981-0.672 1.71-1.259v0l11.586-9.294-0.098-0.088c-0.762-0.687-1.411-1.125-1.945-1.314-0.535-0.198-0.983-0.305-1.345-0.32-0.357-0.02-0.558-0.05-0.604-0.091v0c-0.096-0.086-0.078-0.203 0.054-0.35v0c0.127-0.141 0.257-0.24 0.389-0.294v0c0.677-0.396 1.521-0.464 2.53-0.204 1.005 0.256 2.105 0.923 3.302 2.001v0c0.555 0.5 1.213 1.162 1.973 1.984v0c1.2 1.227 1.928 1.957 2.186 2.189v0c0.924 0.833 1.674 1.366 2.249 1.601 0.585 0.234 0.91 0.381 0.975 0.44v0c0.061 0.055 0.092 0.106 0.095 0.154 0.003 0.048-0.024 0.102-0.078 0.163v0c-0.173 0.192-0.506 0.313-0.999 0.362-0.489 0.045-1.081-0.059-1.778-0.312-0.697-0.253-1.418-0.715-2.165-1.388v0c-0.288-0.259-0.556-0.515-0.806-0.767-0.249-0.252-0.47-0.478-0.663-0.68v0c-0.673-0.725-1.161-1.225-1.464-1.498v0l-6.118 4.917 4.491 4.047c0.126 0.114 0.139 0.226 0.039 0.337v0c-0.1 0.111-0.367 0.209-0.8 0.295-0.439 0.081-0.902 0.097-1.391 0.05-0.484-0.052-0.862-0.201-1.135-0.446v0c-0.081-0.073-0.253-0.283-0.516-0.63v0c-0.439-0.661-0.905-1.214-1.4-1.66v0l-0.788-0.71-5.028 3.951c-0.276 0.245-0.583 0.449-0.921 0.611-0.328 0.161-0.605 0.255-0.83 0.281v0l-0.021 0.023c0.247 0.396 0.582 0.836 1.007 1.319 0.43 0.488 0.851 0.918 1.266 1.291v0c1.419 1.279 2.99 2.063 4.713 2.354v0c0.069 0.025 0.144 0.048 0.228 0.068 0.083 0.02 0.147 0.05 0.192 0.091v0c0.111 0.1 0.096 0.228-0.045 0.385v0c-0.305 0.338-0.842 0.503-1.613 0.495-0.775-0.003-1.617-0.176-2.524-0.518-0.903-0.338-1.706-0.823-2.408-1.456v0c-0.475-0.428-1.134-1.168-1.978-2.222v0c-0.632-0.771-1.092-1.286-1.38-1.545v0c-0.333-0.3-0.713-0.519-1.138-0.655-0.426-0.137-0.677-0.239-0.752-0.308z" fill="#ffffff" data-fill-palette-color="primary"/>
                              <path d="M235.597 70.666c-0.023-0.034-0.022-0.08 0.004-0.139 0.03-0.053 0.095-0.102 0.197-0.146v0c2.365-1.248 4.41-2.369 6.134-3.362 1.719-0.989 3.52-2.125 5.402-3.406v0c1.36-0.926 2.4-1.692 3.123-2.298 0.716-0.603 1.184-1.123 1.404-1.56 0.22-0.438 0.21-0.833-0.031-1.188v0c-0.505-0.742-1.658-0.89-3.46-0.444v0c-0.254 0.074-0.432 0.114-0.536 0.118-0.104 0.005-0.192-0.046-0.264-0.153v0c-0.084-0.124 0.034-0.294 0.354-0.512v0c0.691-0.47 1.493-0.778 2.406-0.923 0.917-0.139 1.78-0.097 2.588 0.125 0.818 0.224 1.421 0.62 1.807 1.187v0c0.639 0.938 0.423 2.01-0.647 3.216-1.076 1.209-2.729 2.573-4.96 4.091v0c-1.416 0.964-3.383 2.187-5.9 3.671v0l0.034 0.051 6.474-1.052c3.942-0.611 6.244-0.986 6.906-1.125v0c0.422-0.057 0.899-0.032 1.432 0.074 0.527 0.11 0.941 0.247 1.242 0.412 0.311 0.167 0.365 0.294 0.162 0.383v0c-0.421 0.179-0.761 0.35-1.021 0.511-0.262 0.17-0.59 0.389-0.984 0.657v0c-0.955 0.65-2.047 1.426-3.274 2.328-1.228 0.902-2.204 1.636-2.929 2.202v0c-0.056 0.038-0.574 0.444-1.552 1.217v0c-1.253 1.009-2.324 1.853-3.21 2.531v0l0.034 0.051c2.115-0.396 3.317-0.63 3.605-0.703v0l3.596-0.659 1.078-0.192c1.28-0.246 2.286-0.471 3.019-0.674 0.737-0.198 1.398-0.495 1.982-0.892v0c0.478-0.325 0.792-0.63 0.945-0.914 0.157-0.288 0.27-0.612 0.338-0.971v0c-0.005-0.079 0.271-0.127 0.827-0.144 0.565-0.015 1.125 0.016 1.678 0.092 0.559 0.072 0.905 0.206 1.039 0.403v0c0.157 0.23 0.105 0.582-0.157 1.056-0.261 0.474-0.639 0.879-1.133 1.215v0c-0.41 0.279-0.944 0.515-1.603 0.709-0.662 0.187-1.529 0.387-2.601 0.599v0l-14.402 2.613c-0.348 0.056-0.841 0.112-1.477 0.167-0.637 0.055-1.093 0.074-1.368 0.056v0c-0.213-0.011-0.407-0.06-0.581-0.147-0.18-0.083-0.289-0.153-0.328-0.209v0c-0.05-0.073-0.001-0.164 0.148-0.273 0.144-0.115 0.292-0.223 0.443-0.327 0.152-0.103 0.27-0.184 0.354-0.241v0c0.905-0.616 2.149-1.541 3.734-2.776 1.585-1.235 2.658-2.068 3.22-2.5v0c2.31-1.86 3.965-3.143 4.965-3.848v0l-0.017-0.025c-1.708 0.233-4.295 0.642-7.762 1.226-3.467 0.584-5.683 0.982-6.648 1.195v0c-0.096 0.016-0.467 0.063-1.113 0.141-0.65 0.072-1.236 0.068-1.759-0.012v0c-0.236-0.045-0.442-0.118-0.618-0.22-0.176-0.102-0.289-0.19-0.339-0.262z" fill="#ffffff" data-fill-palette-color="primary"/>
                              <path d="M254.438 106.859c-0.338-0.948 0.142-1.779 1.438-2.493v0c1.044-0.574 3-1.372 5.868-2.395v0l-0.847-0.553-1.318-3.698c-1.355-0.037-2.617-0.196-3.786-0.479-1.167-0.277-2.106-0.675-2.817-1.193v0l-0.058 0.02c-0.028 0.306 0.001 0.58 0.088 0.824v0c0.107 0.301 0.261 0.571 0.462 0.809 0.192 0.235 0.299 0.384 0.322 0.449v0c0.05 0.141 0.027 0.228-0.069 0.262v0c-0.141 0.05-0.434-0.004-0.88-0.162v0c-0.436-0.212-0.805-0.467-1.106-0.764-0.303-0.303-0.513-0.618-0.629-0.945v0c-0.094-0.263-0.146-0.662-0.157-1.2v0c-0.013-0.544-0.063-0.937-0.15-1.18v0c-0.107-0.301-0.297-0.58-0.569-0.836-0.272-0.257-0.426-0.436-0.462-0.539v0c-0.034-0.096 0-0.162 0.102-0.199v0c0.198-0.071 0.464-0.075 0.796-0.013 0.326 0.064 0.58 0.19 0.763 0.378v0c0.107 0.099 0.19 0.199 0.248 0.301 0.058 0.102 0.145 0.226 0.262 0.372v0c0.588 0.678 1.385 1.173 2.391 1.485 1.012 0.31 2.093 0.499 3.243 0.565 1.149 0.067 2.599 0.095 4.349 0.085v0c1.978 0.002 3.598 0.034 4.861 0.096 1.263 0.062 2.473 0.237 3.629 0.525 1.165 0.292 2.153 0.748 2.966 1.367v0l0.029-0.01c-0.062-0.295-0.096-0.521-0.101-0.678v0c-0.008-0.084-0.058-0.344-0.148-0.781-0.084-0.439-0.242-0.982-0.473-1.628v0c-0.388-1.088-0.915-1.929-1.58-2.521-0.666-0.592-1.568-1.05-2.708-1.373v0c-0.4-0.088-0.62-0.19-0.661-0.306v0c-0.043-0.122 0.018-0.212 0.185-0.271v0l0.308-0.077c1.336-0.137 2.572 0.202 3.706 1.016 1.132 0.809 1.954 1.93 2.466 3.364v0c0.21 0.589 0.421 1.506 0.634 2.751v0c0.189 1.159 0.366 1.969 0.53 2.43v0c0.187 0.525 0.485 1.047 0.894 1.565v0l-0.029 0.01c-1.103-0.22-2.673-0.14-4.71 0.239-2.034 0.386-4.476 1.087-7.325 2.102v0c-2.926 1.043-4.882 1.809-5.87 2.298v0c-0.569 0.246-0.977 0.489-1.223 0.728-0.249 0.233-0.315 0.513-0.199 0.84v0c0.071 0.198 0.192 0.375 0.363 0.531 0.171 0.156 0.417 0.36 0.738 0.613v0c0.399 0.291 0.616 0.484 0.651 0.58v0c0.043 0.122 0.023 0.197-0.06 0.227v0c-0.16 0.057-0.374 0.065-0.641 0.023v0c-0.822-0.14-1.593-0.45-2.312-0.929-0.719-0.48-1.187-1.024-1.405-1.632zM261.589 97.621l1.404 3.937c1.87-0.623 3.761-1.149 5.672-1.578 1.905-0.426 3.493-0.675 4.766-0.746v0l-0.01-0.029c-0.646-0.657-1.794-1.107-3.446-1.348-1.658-0.239-4.068-0.329-7.229-0.27v0z" fill="#ffffff" data-fill-palette-color="primary"/>
                              <path d="M2.156 143.94c0-5.182 4.2-9.382 9.382-9.382 5.182 0 9.382 4.2 9.382 9.382 0 5.182-4.2 9.382-9.382 9.382-5.182 0-9.382-4.2-9.382-9.382z" fill="#ffffff" data-fill-palette-color="primary"/>
                              <path d="M259.08 143.94c0-5.182 4.2-9.382 9.382-9.382 5.182 0 9.382 4.2 9.382 9.382 0 5.182-4.2 9.382-9.382 9.382-5.182 0-9.382-4.2-9.382-9.382z" fill="#ffffff" data-fill-palette-color="primary"/>
                            </g>
                            <g id="text-1">
                              <path d="M10.348 183.545c-0.247-0.792-0.297-1.52-0.149-2.186 0.15-0.659 0.41-1.207 0.78-1.642 0.363-0.434 0.744-0.731 1.142-0.891v0c0.35-0.109 0.74-0.128 1.169-0.055 0.431 0.079 0.811 0.213 1.14 0.402 0.33 0.189 0.516 0.352 0.558 0.488v0c0.028 0.091-0.009 0.152-0.113 0.185v0c-0.947 0.388-1.75 0.927-2.411 1.618-0.66 0.69-0.812 1.606-0.455 2.748v0c0.286 0.915 0.793 1.561 1.523 1.938 0.735 0.369 1.605 0.396 2.61 0.082v0c0.597-0.186 1.115-0.476 1.555-0.869 0.435-0.385 0.889-0.94 1.361-1.664v0l2.257-3.546c0.283-0.394 0.597-0.735 0.942-1.02 0.347-0.279 0.803-0.507 1.367-0.683v0c0.915-0.286 1.84-0.343 2.777-0.173 0.943 0.169 1.794 0.579 2.553 1.233 0.751 0.649 1.294 1.511 1.63 2.588v0c0.275 0.882 0.319 1.659 0.129 2.331-0.181 0.676-0.605 1.118-1.273 1.326v0c-0.513 0.16-1.169 0.133-1.969-0.079v0c-0.315-0.073-0.502-0.206-0.563-0.401v0c-0.045-0.143-0.009-0.257 0.107-0.343 0.124-0.081 0.355-0.196 0.693-0.345v0c1.392-0.491 1.86-1.467 1.404-2.927v0c-0.275-0.882-0.714-1.5-1.315-1.853-0.602-0.353-1.292-0.408-2.071-0.166v0c-0.772 0.241-1.452 0.813-2.038 1.715v0l-2.14 3.445c-0.944 1.491-2.12 2.456-3.528 2.896v0c-1.025 0.32-2.071 0.333-3.138 0.04-1.067-0.293-2.01-0.818-2.83-1.573-0.828-0.76-1.396-1.633-1.704-2.619z" fill="#08c076" data-fill-palette-color="secondary"/>
                              <path d="M19.53 205.925c-0.057-0.101-0.029-0.183 0.084-0.246v0c0.338-0.19 0.771-0.188 1.301 0.005v0c0.414 0.126 0.76 0.201 1.038 0.224 0.272 0.026 0.613-0.005 1.022-0.095 0.4-0.092 0.979-0.277 1.735-0.555v0l11.998-4.392-0.055-0.098c-0.433-0.77-0.841-1.309-1.224-1.616-0.38-0.301-0.714-0.507-1.002-0.618-0.286-0.12-0.442-0.204-0.469-0.251v0c-0.053-0.095-0.009-0.182 0.134-0.262v0c0.142-0.08 0.277-0.124 0.404-0.134v0c0.663-0.139 1.37 0.037 2.121 0.527 0.748 0.484 1.461 1.331 2.141 2.539v0c0.316 0.563 0.668 1.285 1.054 2.168v0c0.646 1.329 1.04 2.121 1.183 2.376v0c0.526 0.936 0.992 1.579 1.399 1.927 0.41 0.354 0.633 0.564 0.67 0.629v0c0.037 0.065 0.05 0.116 0.039 0.153-0.01 0.037-0.048 0.074-0.113 0.111v0c-0.196 0.11-0.499 0.117-0.912 0.021-0.412-0.096-0.867-0.343-1.365-0.742-0.497-0.399-0.959-0.978-1.385-1.736v0c-0.16-0.284-0.309-0.563-0.446-0.836-0.132-0.277-0.248-0.524-0.347-0.741v0c-0.351-0.777-0.613-1.32-0.786-1.628v0l-6.337 2.333 2.548 4.533c0.07 0.124 0.049 0.218-0.064 0.282v0c-0.113 0.063-0.359 0.069-0.739 0.017-0.377-0.046-0.756-0.16-1.14-0.342-0.386-0.173-0.655-0.396-0.808-0.668v0c-0.043-0.077-0.124-0.297-0.242-0.659v0c-0.181-0.655-0.413-1.234-0.696-1.738v0l-0.444-0.791-5.179 1.835c-0.298 0.121-0.603 0.203-0.915 0.245-0.315 0.037-0.569 0.035-0.762-0.004v0l-0.027 0.015c0.095 0.391 0.248 0.843 0.458 1.356 0.22 0.516 0.446 0.981 0.68 1.396v0c0.806 1.434 1.873 2.507 3.2 3.219v0c0.044 0.037 0.098 0.077 0.161 0.12 0.066 0.033 0.112 0.074 0.138 0.121v0c0.063 0.113 0.015 0.214-0.145 0.303v0c-0.338 0.19-0.821 0.177-1.449-0.039-0.628-0.216-1.265-0.587-1.911-1.112-0.646-0.526-1.169-1.144-1.569-1.855v0c-0.27-0.48-0.604-1.263-1.004-2.348v0c-0.304-0.804-0.537-1.351-0.7-1.642v0c-0.19-0.338-0.438-0.619-0.744-0.845-0.309-0.232-0.486-0.386-0.529-0.462z" fill="#08c076" data-fill-palette-color="secondary"/>
                              <path d="M33.907 228.571c-0.036-0.041-0.043-0.089-0.021-0.145 0.023-0.056 0.054-0.103 0.095-0.139v0c0.183-0.163 0.461-0.274 0.836-0.334 0.379-0.064 0.755-0.062 1.126 0.008 0.371 0.08 0.649 0.223 0.834 0.432v0l0.42 0.472c0.42-0.028 0.852-0.121 1.294-0.278 0.443-0.157 1.009-0.456 1.699-0.897v0l8.478-5.287c0.641-0.415 1.325-0.714 2.053-0.897 0.728-0.174 1.58-0.227 2.559-0.161v0c1.746 0.102 3.114 0.71 4.103 1.822v0c0.248 0.279 0.471 0.581 0.669 0.906 0.207 0.325 0.342 0.619 0.403 0.883v0c0.053 0.253 0.043 0.412-0.028 0.475v0c-0.122 0.108-0.401 0.07-0.838-0.114-0.432-0.179-0.734-0.366-0.906-0.559v0c-0.05-0.056-0.15-0.24-0.3-0.552-0.155-0.308-0.348-0.591-0.578-0.849v0c-0.429-0.483-0.998-0.79-1.708-0.924v0c-0.467-0.085-0.991-0.02-1.571 0.197-0.58 0.207-1.257 0.54-2.031 1v0l-10.001 6.151c-0.335 0.207-0.693 0.366-1.075 0.478-0.378 0.117-0.715 0.158-1.011 0.122v0l-0.023 0.02c0.179 0.314 0.55 0.834 1.114 1.56 0.563 0.736 1.017 1.297 1.36 1.683v0c1.066 1.199 2.324 2.031 3.775 2.496v0c0.19 0.05 0.309 0.102 0.359 0.159v0c0.086 0.097 0.053 0.213-0.1 0.348v0c-0.259 0.23-0.728 0.306-1.407 0.228-0.669-0.078-1.411-0.328-2.223-0.752-0.812-0.433-1.537-1.007-2.174-1.723v0c-0.303-0.34-0.816-1.03-1.539-2.069v0c-0.112-0.146-0.354-0.485-0.728-1.018-0.373-0.532-0.731-0.991-1.074-1.377v0c-0.357-0.401-0.646-0.681-0.868-0.838-0.227-0.153-0.432-0.266-0.616-0.34-0.189-0.069-0.308-0.131-0.357-0.187z" fill="#08c076" data-fill-palette-color="secondary"/>
                              <path d="M54.843 249.645c-0.076-0.057-0.066-0.151 0.031-0.281v0c0.243-0.327 0.63-0.523 1.16-0.586v0c0.598-0.064 1.007-0.124 1.227-0.181 0.215-0.061 0.461-0.199 0.74-0.414 0.274-0.22 0.728-0.632 1.363-1.236v0l9.174-8.868-0.106-0.08c-0.709-0.527-1.301-0.853-1.776-0.977-0.469-0.12-0.856-0.17-1.159-0.15-0.299 0.015-0.47 0.006-0.514-0.027v0c-0.104-0.077-0.107-0.181-0.009-0.312v0c0.032-0.044 0.137-0.139 0.315-0.286v0c0.549-0.396 1.261-0.528 2.135-0.395 0.875 0.134 1.868 0.614 2.981 1.442v0c0.529 0.393 1.152 0.916 1.87 1.569v0c0.179 0.158 0.479 0.415 0.9 0.771 0.427 0.36 0.801 0.659 1.124 0.898v0c0.578 0.43 1.058 0.736 1.439 0.918 0.381 0.182 0.709 0.311 0.982 0.388 0.279 0.08 0.449 0.143 0.509 0.187v0c0.06 0.045 0.093 0.086 0.098 0.124 0.006 0.038-0.014 0.087-0.058 0.147v0c-0.134 0.18-0.409 0.31-0.825 0.391-0.416 0.081-0.929 0.042-1.54-0.116-0.606-0.154-1.257-0.49-1.955-1.01v0c-0.267-0.199-0.719-0.577-1.355-1.134v0c-0.168-0.15-0.371-0.327-0.609-0.529-0.239-0.203-0.5-0.41-0.784-0.621v0l-5.191 5.033 4.172 3.103c0.136 0.101 0.17 0.198 0.101 0.291v0c-0.077 0.104-0.307 0.208-0.69 0.313-0.377 0.109-0.775 0.165-1.192 0.168-0.413-0.002-0.745-0.097-0.996-0.284v0c-0.071-0.053-0.248-0.231-0.53-0.534v0c-0.417-0.488-0.862-0.908-1.337-1.261v0l-0.753-0.559-4.086 3.923c-0.324 0.31-0.718 0.499-1.184 0.568v0l-0.013 0.016c0.297 0.432 0.541 0.72 0.732 0.862v0c0.196 0.146 0.42 0.249 0.672 0.309 0.252 0.06 0.399 0.106 0.443 0.139v0c0.104 0.077 0.123 0.159 0.058 0.246v0c-0.089 0.12-0.315 0.207-0.676 0.26v0c-1.056 0.155-1.761 0.101-2.115-0.162v0c-0.12-0.089-0.313-0.326-0.578-0.71v0c-0.361-0.472-0.623-0.768-0.786-0.89v0c-0.235-0.174-0.518-0.288-0.852-0.341-0.328-0.049-0.514-0.09-0.557-0.122z" fill="#08c076" data-fill-palette-color="secondary"/>
                              <path d="M76.96 264.358c-0.049-0.023-0.075-0.064-0.077-0.125-0.002-0.061 0.008-0.116 0.03-0.165v0c0.101-0.223 0.311-0.437 0.629-0.644 0.321-0.213 0.665-0.362 1.033-0.448 0.371-0.077 0.684-0.059 0.937 0.057v0l0.576 0.261c0.373-0.196 0.73-0.456 1.071-0.778 0.341-0.323 0.738-0.825 1.19-1.508v0l5.61-8.268c0.418-0.639 0.922-1.19 1.513-1.652 0.595-0.454 1.353-0.848 2.275-1.183v0c1.638-0.614 3.135-0.612 4.489 0.004v0c0.34 0.155 0.666 0.341 0.979 0.557 0.321 0.213 0.563 0.428 0.726 0.645v0c0.151 0.21 0.206 0.359 0.167 0.445v0c-0.068 0.148-0.338 0.227-0.813 0.235-0.468 0.011-0.82-0.037-1.054-0.144v0c-0.068-0.031-0.234-0.159-0.498-0.383-0.267-0.218-0.558-0.399-0.873-0.543v0c-0.588-0.267-1.233-0.318-1.935-0.152v0c-0.461 0.111-0.914 0.383-1.358 0.816-0.447 0.424-0.93 1.003-1.451 1.737v0l-6.653 9.674c-0.222 0.324-0.485 0.615-0.789 0.873-0.298 0.26-0.589 0.434-0.875 0.52v0l-0.013 0.028c0.291 0.214 0.841 0.539 1.651 0.975 0.813 0.445 1.455 0.774 1.925 0.988v0c1.46 0.664 2.947 0.915 4.462 0.754v0c0.194-0.031 0.324-0.032 0.393-0.001v0c0.118 0.053 0.134 0.173 0.049 0.359v0c-0.144 0.316-0.542 0.575-1.194 0.778-0.644 0.2-1.423 0.271-2.337 0.214-0.918-0.067-1.813-0.299-2.686-0.696v0c-0.414-0.189-1.163-0.611-2.245-1.268v0c-0.161-0.088-0.52-0.3-1.077-0.636-0.557-0.335-1.07-0.61-1.541-0.824v0c-0.489-0.222-0.866-0.361-1.133-0.415-0.269-0.048-0.503-0.068-0.7-0.061-0.2 0.013-0.334 0.005-0.403-0.026z" fill="#08c076" data-fill-palette-color="secondary"/>
                              <path d="M104.668 275.153c-0.113-0.025-0.155-0.101-0.127-0.227v0c0.085-0.378 0.377-0.699 0.877-0.962v0c0.371-0.223 0.658-0.43 0.861-0.62 0.202-0.184 0.407-0.459 0.615-0.823 0.2-0.359 0.45-0.912 0.751-1.659v0l4.781-11.849-0.11-0.025c-0.862-0.195-1.535-0.253-2.019-0.174-0.478 0.08-0.855 0.19-1.131 0.329-0.281 0.132-0.447 0.191-0.5 0.18v0c-0.106-0.024-0.141-0.116-0.105-0.275v0c0.036-0.159 0.093-0.289 0.171-0.389v0c0.341-0.585 0.945-0.992 1.813-1.221 0.86-0.23 1.967-0.193 3.319 0.113v0c0.63 0.142 1.402 0.366 2.316 0.67v0c1.419 0.411 2.271 0.649 2.556 0.714v0c1.047 0.237 1.837 0.321 2.368 0.253 0.538-0.067 0.843-0.092 0.915-0.075v0c0.073 0.016 0.12 0.041 0.141 0.073 0.021 0.033 0.023 0.085 0.006 0.158v0c-0.049 0.219-0.248 0.449-0.596 0.692-0.347 0.242-0.836 0.414-1.465 0.515-0.629 0.102-1.368 0.056-2.216-0.135v0c-0.318-0.072-0.625-0.148-0.921-0.229-0.294-0.087-0.555-0.167-0.782-0.24v0c-0.812-0.26-1.391-0.429-1.735-0.507v0l-2.515 6.267 5.072 1.147c0.139 0.031 0.195 0.11 0.166 0.236v0c-0.028 0.126-0.189 0.313-0.482 0.56-0.286 0.249-0.625 0.454-1.018 0.616-0.387 0.17-0.733 0.221-1.037 0.153v0c-0.086-0.019-0.303-0.107-0.652-0.263v0c-0.607-0.305-1.192-0.52-1.756-0.648v0l-0.885-0.2-2.109 5.074c-0.11 0.303-0.254 0.584-0.431 0.843-0.184 0.258-0.355 0.446-0.514 0.563v0l-0.007 0.03c0.354 0.192 0.792 0.381 1.314 0.569 0.53 0.183 1.027 0.326 1.491 0.431v0c1.604 0.363 3.116 0.29 4.534-0.219v0c0.058-0.008 0.123-0.021 0.197-0.039 0.069-0.026 0.13-0.033 0.183-0.021v0c0.126 0.028 0.169 0.132 0.128 0.311v0c-0.085 0.378-0.419 0.728-1 1.049-0.581 0.321-1.284 0.546-2.107 0.673-0.823 0.127-1.633 0.101-2.429-0.078v0c-0.537-0.121-1.342-0.398-2.415-0.829v0c-0.8-0.313-1.363-0.507-1.687-0.58v0c-0.378-0.085-0.753-0.09-1.126-0.014-0.379 0.075-0.612 0.102-0.698 0.082z" fill="#08c076" data-fill-palette-color="secondary"/>
                              <path d="M135.756 279.999c-0.829-0.016-1.536-0.2-2.121-0.552-0.578-0.351-1.015-0.771-1.311-1.259-0.296-0.482-0.457-0.937-0.483-1.366v0c0.007-0.367 0.113-0.742 0.318-1.126 0.211-0.383 0.459-0.701 0.743-0.954 0.284-0.253 0.497-0.378 0.64-0.375v0c0.095 0.002 0.142 0.057 0.139 0.166v0c0.068 1.021 0.325 1.954 0.771 2.799 0.446 0.845 1.266 1.279 2.462 1.303v0c0.958 0.019 1.732-0.258 2.321-0.831 0.582-0.58 0.884-1.397 0.905-2.45v0c0.012-0.625-0.099-1.209-0.332-1.75-0.227-0.535-0.61-1.141-1.148-1.818v0l-2.648-3.264c-0.285-0.393-0.508-0.799-0.669-1.216-0.155-0.418-0.227-0.922-0.215-1.514v0c0.019-0.958 0.257-1.854 0.716-2.688 0.458-0.841 1.118-1.518 1.977-2.031 0.853-0.507 1.843-0.749 2.972-0.727v0c0.924 0.018 1.675 0.223 2.251 0.616 0.584 0.385 0.869 0.928 0.855 1.628v0c-0.011 0.537-0.244 1.151-0.699 1.842v0c-0.169 0.275-0.355 0.411-0.558 0.407v0c-0.149-0.003-0.247-0.073-0.292-0.21-0.038-0.144-0.074-0.399-0.107-0.767v0c-0.025-1.476-0.802-2.229-2.332-2.258v0c-0.924-0.018-1.649 0.202-2.174 0.66-0.526 0.459-0.797 1.096-0.813 1.912v0c-0.016 0.809 0.311 1.634 0.981 2.476v0l2.59 3.121c1.115 1.368 1.658 2.789 1.629 4.264v0c-0.021 1.074-0.34 2.07-0.956 2.989-0.616 0.919-1.412 1.648-2.389 2.186-0.983 0.545-1.991 0.807-3.023 0.787z" fill="#08c076" data-fill-palette-color="secondary"/>
                              <path d="M162.299 278.217c-0.816 0.146-1.545 0.104-2.187-0.127-0.635-0.232-1.146-0.558-1.532-0.979-0.385-0.414-0.632-0.829-0.741-1.245v0c-0.065-0.361-0.034-0.75 0.092-1.166 0.132-0.417 0.313-0.778 0.542-1.081 0.229-0.303 0.413-0.468 0.554-0.492v0c0.094-0.017 0.15 0.028 0.169 0.135v0c0.267 0.988 0.701 1.853 1.303 2.594 0.602 0.742 1.492 1.007 2.67 0.797v0c0.943-0.169 1.648-0.592 2.114-1.269 0.458-0.683 0.594-1.542 0.408-2.58v0c-0.11-0.616-0.333-1.166-0.668-1.651-0.328-0.48-0.821-0.999-1.48-1.558v0l-3.235-2.684c-0.356-0.33-0.654-0.684-0.895-1.062-0.234-0.379-0.402-0.86-0.506-1.442v0c-0.169-0.943-0.11-1.869 0.176-2.777 0.285-0.914 0.799-1.707 1.542-2.378 0.737-0.664 1.661-1.095 2.772-1.293v0c0.91-0.163 1.686-0.108 2.329 0.163 0.648 0.264 1.034 0.74 1.157 1.429v0c0.095 0.529-0.014 1.176-0.326 1.944v0c-0.111 0.303-0.268 0.473-0.468 0.508v0c-0.147 0.026-0.256-0.023-0.327-0.149-0.065-0.133-0.15-0.377-0.255-0.731v0c-0.313-1.442-1.223-2.029-2.728-1.759v0c-0.91 0.163-1.578 0.521-2.004 1.073-0.426 0.553-0.567 1.23-0.423 2.033v0c0.142 0.796 0.625 1.542 1.446 2.237v0l3.15 2.554c1.361 1.124 2.171 2.411 2.431 3.864v0c0.189 1.057 0.071 2.097-0.353 3.118-0.425 1.022-1.063 1.892-1.915 2.611-0.857 0.727-1.795 1.181-2.812 1.363z" fill="#08c076" data-fill-palette-color="secondary"/>
                              <path d="M208.672 261.347c-0.71 0.429-1.405 0.651-2.087 0.666-0.676 0.012-1.27-0.11-1.781-0.365-0.508-0.249-0.887-0.548-1.138-0.897v0c-0.19-0.314-0.301-0.688-0.333-1.121-0.026-0.437 0.013-0.838 0.119-1.203 0.105-0.365 0.218-0.585 0.34-0.659v0c0.081-0.049 0.15-0.027 0.207 0.066v0c0.603 0.827 1.319 1.478 2.147 1.954 0.828 0.476 1.754 0.405 2.777-0.213v0c0.82-0.496 1.326-1.143 1.518-1.943 0.183-0.801 0.001-1.653-0.543-2.554v0c-0.324-0.535-0.729-0.969-1.216-1.302-0.478-0.331-1.125-0.638-1.941-0.924v0l-3.982-1.345c-0.451-0.18-0.856-0.404-1.216-0.671-0.354-0.27-0.684-0.659-0.99-1.165v0c-0.496-0.82-0.773-1.705-0.831-2.654-0.061-0.956 0.134-1.88 0.587-2.774 0.45-0.884 1.158-1.618 2.124-2.201v0c0.791-0.478 1.535-0.706 2.233-0.683 0.699 0.014 1.23 0.321 1.592 0.92v0c0.278 0.46 0.409 1.103 0.393 1.931v0c0.005 0.323-0.08 0.537-0.255 0.642v0c-0.128 0.077-0.247 0.07-0.358-0.021-0.109-0.101-0.276-0.298-0.501-0.591v0c-0.81-1.234-1.869-1.455-3.177-0.665v0c-0.791 0.478-1.286 1.052-1.486 1.721-0.199 0.669-0.088 1.352 0.334 2.05v0c0.418 0.692 1.136 1.215 2.152 1.569v0l3.856 1.255c1.673 0.561 2.892 1.472 3.655 2.735v0c0.556 0.919 0.818 1.932 0.788 3.038-0.03 1.106-0.314 2.148-0.851 3.123-0.54 0.986-1.252 1.746-2.136 2.281z" fill="#08c076" data-fill-palette-color="secondary"/>
                              <path d="M228.212 247.085c-0.084 0.079-0.171 0.071-0.259-0.023v0c-0.265-0.283-0.367-0.704-0.306-1.265v0c0.023-0.432 0.013-0.786-0.031-1.061-0.039-0.271-0.152-0.594-0.336-0.97-0.185-0.367-0.503-0.884-0.953-1.553v0l-7.133-10.6-0.082 0.077c-0.644 0.604-1.07 1.129-1.277 1.575-0.202 0.441-0.322 0.814-0.36 1.121-0.048 0.306-0.092 0.478-0.132 0.515v0c-0.079 0.074-0.175 0.052-0.287-0.067v0c-0.112-0.119-0.187-0.239-0.226-0.361v0c-0.293-0.61-0.291-1.339 0.005-2.185 0.291-0.842 0.943-1.737 1.954-2.686v0c0.471-0.442 1.088-0.956 1.853-1.542v0c1.136-0.945 1.811-1.517 2.024-1.716v0c0.783-0.735 1.296-1.341 1.536-1.819 0.246-0.483 0.397-0.749 0.452-0.801v0c0.055-0.051 0.101-0.076 0.139-0.075 0.038 0.001 0.083 0.029 0.134 0.084v0c0.153 0.164 0.233 0.457 0.239 0.88 0.006 0.423-0.126 0.924-0.394 1.502-0.269 0.578-0.72 1.165-1.355 1.76v0c-0.238 0.223-0.473 0.434-0.705 0.634-0.237 0.194-0.449 0.365-0.637 0.513v0c-0.671 0.527-1.135 0.911-1.393 1.153v0l3.781 5.595 3.792-3.557c0.104-0.098 0.2-0.099 0.289-0.005v0c0.088 0.094 0.153 0.332 0.193 0.713 0.046 0.377 0.026 0.773-0.059 1.188-0.076 0.416-0.228 0.731-0.456 0.945v0c-0.064 0.06-0.259 0.191-0.582 0.393v0c-0.592 0.332-1.099 0.696-1.521 1.091v0l-0.662 0.62 3.02 4.59c0.189 0.261 0.341 0.537 0.456 0.83 0.111 0.297 0.17 0.544 0.179 0.741v0l0.02 0.023c0.357-0.186 0.759-0.442 1.208-0.769 0.448-0.337 0.846-0.668 1.193-0.994v0c1.2-1.125 1.986-2.418 2.36-3.877v0c0.026-0.052 0.052-0.114 0.078-0.185 0.017-0.072 0.045-0.126 0.085-0.163v0c0.094-0.088 0.204-0.066 0.329 0.068v0c0.265 0.283 0.368 0.755 0.308 1.417-0.06 0.662-0.267 1.369-0.623 2.122-0.356 0.753-0.831 1.409-1.426 1.967v0c-0.402 0.377-1.081 0.889-2.04 1.536v0c-0.708 0.487-1.183 0.844-1.426 1.072v0c-0.283 0.265-0.497 0.573-0.643 0.924-0.151 0.356-0.258 0.564-0.323 0.625z" fill="#08c076" data-fill-palette-color="secondary"/>
                              <path d="M250.049 223.238c-0.019 0.028-0.055 0.041-0.11 0.038-0.049 0-0.11-0.031-0.181-0.095v0c-1.768-1.469-3.329-2.725-4.685-3.769-1.356-1.044-2.852-2.103-4.489-3.176v0c-1.188-0.779-2.139-1.355-2.854-1.727-0.715-0.372-1.282-0.573-1.701-0.603-0.419-0.031-0.729 0.107-0.93 0.414v0c-0.425 0.648-0.166 1.61 0.776 2.887v0c0.147 0.186 0.238 0.319 0.274 0.399 0.036 0.081 0.025 0.167-0.035 0.258v0c-0.071 0.108-0.245 0.071-0.524-0.112v0c-0.602-0.395-1.112-0.932-1.527-1.612-0.41-0.676-0.661-1.377-0.754-2.104-0.09-0.718 0.027-1.324 0.352-1.818v0c0.537-0.818 1.461-1 2.772-0.547 1.312 0.454 2.939 1.319 4.883 2.594v0c1.233 0.809 2.854 1.97 4.861 3.482v0l0.028-0.043-2.97-4.802c-1.782-2.933-2.835-4.636-3.16-5.109v0c-0.189-0.319-0.329-0.707-0.418-1.164-0.084-0.454-0.111-0.829-0.079-1.125 0.03-0.306 0.11-0.391 0.241-0.257v0c0.287 0.269 0.54 0.484 0.76 0.645 0.218 0.151 0.497 0.338 0.838 0.562v0c0.83 0.544 1.806 1.156 2.929 1.837 1.113 0.682 2.019 1.215 2.718 1.6v0c0.045 0.03 0.536 0.311 1.471 0.843v0c1.217 0.66 2.241 1.23 3.072 1.711v0l0.028-0.043c-1.009-1.548-1.591-2.426-1.747-2.634v0l-1.705-2.642-0.504-0.794c-0.621-0.936-1.133-1.662-1.534-2.178-0.398-0.521-0.85-0.948-1.355-1.279v0c-0.415-0.272-0.763-0.423-1.044-0.453-0.281-0.03-0.574-0.011-0.879 0.057v0c-0.064 0.023-0.193-0.183-0.387-0.619-0.199-0.44-0.362-0.892-0.488-1.357-0.122-0.47-0.127-0.791-0.015-0.961v0c0.131-0.199 0.427-0.273 0.889-0.221 0.462 0.051 0.909 0.219 1.341 0.502v0c0.358 0.235 0.72 0.582 1.085 1.041 0.371 0.463 0.82 1.086 1.346 1.87v0l6.808 10.588c0.162 0.261 0.369 0.633 0.622 1.115 0.254 0.492 0.419 0.848 0.494 1.068v0c0.062 0.179 0.087 0.35 0.077 0.514-0.014 0.17-0.036 0.277-0.065 0.323v0c-0.041 0.063-0.129 0.054-0.263-0.026-0.138-0.074-0.273-0.154-0.404-0.241-0.131-0.086-0.236-0.155-0.315-0.206v0c-0.784-0.515-1.928-1.2-3.431-2.056-1.497-0.852-2.513-1.429-3.047-1.731v0c-2.237-1.224-3.8-2.119-4.688-2.686v0l-0.017 0.026c0.743 1.284 1.918 3.209 3.526 5.776 1.606 2.558 2.656 4.185 3.149 4.883v0c0.034 0.071 0.191 0.353 0.47 0.845 0.273 0.488 0.463 0.954 0.571 1.398v0c0.037 0.203 0.044 0.391 0.021 0.563-0.023 0.172-0.055 0.289-0.097 0.351z" fill="#08c076" data-fill-palette-color="secondary"/>
                              <path d="M269.07 185.153c-0.28 0.817-1.045 1.118-2.294 0.905v0c-1.02-0.17-2.767-0.679-5.242-1.528v0l0.28 0.818-1.095 3.192c0.89 0.758 1.652 1.54 2.288 2.347 0.64 0.816 1.058 1.588 1.254 2.316v0l0.058 0.02c0.18-0.19 0.305-0.387 0.376-0.593v0c0.09-0.264 0.131-0.53 0.123-0.798-0.004-0.26 0.003-0.416 0.02-0.468v0c0.042-0.122 0.105-0.169 0.188-0.14v0c0.122 0.042 0.289 0.236 0.501 0.581v0c0.188 0.373 0.302 0.743 0.342 1.109 0.04 0.366 0.012 0.687-0.082 0.964v0c-0.077 0.225-0.258 0.522-0.543 0.891v0c-0.278 0.372-0.454 0.663-0.527 0.876v0c-0.09 0.264-0.114 0.554-0.072 0.87 0.049 0.319 0.059 0.52 0.03 0.603v0c-0.031 0.09-0.091 0.12-0.181 0.089v0c-0.174-0.06-0.352-0.2-0.535-0.421-0.192-0.217-0.299-0.437-0.323-0.66v0c-0.014-0.127-0.011-0.241 0.009-0.342 0.012-0.097 0.016-0.224 0.013-0.384v0c-0.03-0.772-0.301-1.533-0.812-2.283-0.512-0.75-1.135-1.456-1.871-2.118-0.742-0.664-1.705-1.461-2.887-2.392v0c-1.332-1.06-2.407-1.95-3.224-2.668-0.811-0.716-1.532-1.485-2.163-2.305-0.623-0.824-1.04-1.661-1.251-2.509v0l-0.029-0.01c-0.116 0.233-0.214 0.404-0.295 0.513v0c-0.037 0.066-0.145 0.266-0.324 0.6-0.175 0.342-0.358 0.793-0.55 1.353v0c-0.322 0.939-0.418 1.786-0.29 2.541 0.135 0.758 0.499 1.551 1.092 2.379v0c0.217 0.268 0.307 0.457 0.269 0.567v0c-0.035 0.103-0.12 0.131-0.256 0.085v0l-0.26-0.122c-0.97-0.627-1.617-1.517-1.94-2.67-0.33-1.155-0.283-2.35 0.141-3.584v0c0.174-0.508 0.521-1.237 1.04-2.187v0c0.498-0.886 0.815-1.528 0.952-1.926v0c0.157-0.456 0.235-0.968 0.236-1.536v0l0.029 0.01c0.621 0.745 1.72 1.531 3.297 2.36 1.575 0.835 3.593 1.674 6.056 2.519v0c2.527 0.867 4.251 1.401 5.173 1.602v0c0.521 0.136 0.926 0.192 1.214 0.168 0.297-0.028 0.493-0.18 0.588-0.456v0c0.06-0.174 0.073-0.359 0.04-0.557-0.026-0.196-0.079-0.462-0.157-0.798v0c-0.117-0.414-0.16-0.666-0.129-0.756v0c0.035-0.103 0.088-0.142 0.159-0.118v0c0.141 0.049 0.291 0.157 0.448 0.327v0c0.477 0.537 0.827 1.16 1.051 1.869 0.224 0.709 0.245 1.327 0.065 1.855zM259.309 187.528l1.165-3.394c-1.594-0.59-3.147-1.248-4.658-1.975-1.515-0.735-2.717-1.421-3.606-2.056v0l-0.007 0.019c0.081 0.79 0.614 1.709 1.598 2.758 0.984 1.049 2.556 2.404 4.717 4.064v0z" fill="#08c076" data-fill-palette-color="secondary"/>
                            </g>
                          </svg>
                        </g>
                      </svg>
                    </g>
                  </svg>
                </g>
                <g/>
              </svg>
            </g>
          </svg>
          <rect width="280" height="280" fill="none" stroke="none" visibility="hidden"/>
        </g>
      </svg>
    </g>
  </g>
</svg>